# xmcd CD database file
#
# Track frame offsets:
#	150
#	20680
#	42272
#	62455
#
# Disc length: 1105 seconds
#
# Revision: 0
# Processed by: cddbd v1.5.1PL0 Copyright (c) Steve Scherf et al.
# Submitted via: CDex 1.51
#
DISCID=2b044f04
DTITLE=NewS - 紅く燃ゆる太陽
DYEAR=2004
DGENRE=JPop
TTITLE0=紅く燃える太陽
TTITLE1=忘れないさ〜LIFE GOES ON〜
TTITLE2=DREAMS
TTITLE3=紅く燃える太陽（オリジナル・カラオケ）
EXTD=YEAR: 2004
EXTT0=
EXTT1=
EXTT2=
EXTT3=
PLAYORDER=
